<svg width="17" height="17" viewBox="0 0 17 17" fill="none" xmlns="http://www.w3.org/2000/svg">
<path d="M14.9467 10.1333H1.61334V12.8C1.61334 13.5364 2.2103 14.1333 2.94668 14.1333H13.6133C14.3497 14.1333 14.9467 13.5364 14.9467 12.8V10.1333Z" stroke="#191A20" stroke-linejoin="round"/>
<path d="M2.94666 14.8H13.6133" stroke="#191A20" stroke-linecap="round" stroke-linejoin="round"/>
<path d="M13.6133 10.1334V3.74286C13.6133 3.22216 13.1912 2.80005 12.6705 2.80005C12.4205 2.80005 12.1807 2.89938 12.0039 3.07619L10.28 4.80005" stroke="#191A20" stroke-linejoin="round"/>
<path d="M3.61333 5.46672C4.34971 5.46672 4.94667 4.86976 4.94667 4.13338C4.94667 3.397 4.34971 2.80005 3.61333 2.80005C2.87695 2.80005 2.28 3.397 2.28 4.13338C2.28 4.86976 2.87695 5.46672 3.61333 5.46672Z" fill="#191A20"/>
<path d="M10.2059 6.05948C10.336 6.18966 10.5516 6.19095 10.6455 6.03262C10.7666 5.82844 10.8321 5.59378 10.8321 5.35238C10.8321 4.99875 10.6916 4.65962 10.4415 4.40956C10.1915 4.15952 9.8524 4.01904 9.49873 4.01904C9.25733 4.01904 9.02267 4.08451 8.81853 4.20561C8.6602 4.29953 8.66147 4.51509 8.79167 4.64527L9.49873 5.35238L10.2059 6.05948Z" fill="#191A20"/>
<path d="M2.61332 10.1334L2.4649 8.64918C2.36589 7.65912 3.14336 6.80005 4.13835 6.80005C4.64925 6.80005 5.13245 7.03229 5.4516 7.43124L7.61332 10.1334" stroke="#191A20" stroke-linejoin="round"/>
</svg>
