<svg width="17" height="17" viewBox="0 0 17 17" fill="none" xmlns="http://www.w3.org/2000/svg">
<g opacity="0.8">
<g clip-path="url(#clip0_2_413)">
<path d="M10.0302 15.6254H6.03026C2.41026 15.6254 0.863586 14.1524 0.863586 10.7048V6.89524C0.863586 3.44762 2.41026 1.97461 6.03026 1.97461H10.0302C13.6502 1.97461 15.197 3.44762 15.197 6.89524V10.7048C15.197 14.1524 13.6502 15.6254 10.0302 15.6254ZM6.03026 2.92699C2.95692 2.92699 1.86359 3.96826 1.86359 6.89524V10.7048C1.86359 13.6317 2.95692 14.673 6.03026 14.673H10.0302C13.1036 14.673 14.197 13.6317 14.197 10.7048V6.89524C14.197 3.96826 13.1036 2.92699 10.0302 2.92699H6.03026Z" fill="#191A20"/>
<path d="M6.02974 8.00647C5.01641 8.00647 4.19641 7.22551 4.19641 6.26044C4.19641 5.29536 5.01641 4.5144 6.02974 4.5144C7.04307 4.5144 7.86307 5.29536 7.86307 6.26044C7.86307 7.22551 7.04307 8.00647 6.02974 8.00647ZM6.02974 5.46679C5.56974 5.46679 5.19641 5.82234 5.19641 6.26044C5.19641 6.69853 5.56974 7.05408 6.02974 7.05408C6.48974 7.05408 6.86307 6.69853 6.86307 6.26044C6.86307 5.82234 6.48974 5.46679 6.02974 5.46679Z" fill="#191A20"/>
<path d="M1.80999 13.689C1.64999 13.689 1.48999 13.6128 1.39666 13.4794C1.24332 13.2635 1.30332 12.9651 1.53666 12.8191L4.82332 10.7175C5.54332 10.254 6.53666 10.3111 7.18999 10.8381L7.40999 11.0223C7.74332 11.2953 8.31001 11.2953 8.63665 11.0223L11.41 8.75563C12.1166 8.17781 13.23 8.17781 13.9433 8.75563L15.03 9.64446C15.2366 9.81589 15.2633 10.1143 15.0833 10.3175C14.9033 10.5143 14.59 10.5397 14.3766 10.3683L13.29 9.47943C12.9566 9.20637 12.39 9.20637 12.0566 9.47943L9.28329 11.7461C8.57665 12.3239 7.46332 12.3239 6.74999 11.7461L6.52999 11.5619C6.22332 11.3143 5.71666 11.289 5.37666 11.5111L2.08999 13.6128C2.00332 13.6635 1.90332 13.689 1.80999 13.689Z" fill="#191A20"/>
</g>
</g>
<defs>
<clipPath id="clip0_2_413">
<rect width="16" height="16" fill="white" transform="translate(0.0299988 0.800049)"/>
</clipPath>
</defs>
</svg>
