<svg width="21" height="22" viewBox="0 0 21 22" fill="none" xmlns="http://www.w3.org/2000/svg">
<g opacity="0.8">
<path d="M12.6103 19.6579H7.61032C3.08532 19.6579 1.15198 17.7246 1.15198 13.1996V8.19954C1.15198 3.67454 3.08532 1.74121 7.61032 1.74121H12.6103C17.1353 1.74121 19.0687 3.67454 19.0687 8.19954V13.1996C19.0687 17.7246 17.1353 19.6579 12.6103 19.6579ZM7.61032 2.99121C3.76865 2.99121 2.40198 4.35787 2.40198 8.19954V13.1996C2.40198 17.0412 3.76865 18.4079 7.61032 18.4079H12.6103C16.452 18.4079 17.8187 17.0412 17.8187 13.1996V8.19954C17.8187 4.35787 16.452 2.99121 12.6103 2.99121H7.61032Z" fill="#F5F5F5"/>
<path d="M7.60965 9.65804C6.34299 9.65804 5.31799 8.63304 5.31799 7.36638C5.31799 6.09971 6.34299 5.07471 7.60965 5.07471C8.87632 5.07471 9.90132 6.09971 9.90132 7.36638C9.90132 8.63304 8.87632 9.65804 7.60965 9.65804ZM7.60965 6.32471C7.03465 6.32471 6.56799 6.79138 6.56799 7.36638C6.56799 7.94138 7.03465 8.40804 7.60965 8.40804C8.18465 8.40804 8.65132 7.94138 8.65132 7.36638C8.65132 6.79138 8.18465 6.32471 7.60965 6.32471Z" fill="#F5F5F5"/>
<path d="M2.33495 17.1165C2.13495 17.1165 1.93495 17.0165 1.81829 16.8415C1.62662 16.5581 1.70162 16.1665 1.99329 15.9748L6.10162 13.2165C7.00162 12.6081 8.24329 12.6831 9.05995 13.3748L9.33495 13.6165C9.75162 13.9748 10.46 13.9748 10.8683 13.6165L14.335 10.6415C15.2183 9.88316 16.61 9.88316 17.5016 10.6415L18.86 11.8081C19.1183 12.0331 19.1516 12.4248 18.9266 12.6915C18.7016 12.9498 18.31 12.9831 18.0433 12.7581L16.685 11.5915C16.2683 11.2331 15.56 11.2331 15.1433 11.5915L11.6766 14.5665C10.7933 15.3248 9.40162 15.3248 8.50995 14.5665L8.23495 14.3248C7.85162 13.9998 7.21829 13.9665 6.79329 14.2581L2.68495 17.0165C2.57662 17.0831 2.45162 17.1165 2.33495 17.1165Z" fill="#F5F5F5"/>
</g>
</svg>
