<svg width="113" height="19" viewBox="0 0 113 19" fill="none" xmlns="http://www.w3.org/2000/svg">
<g clip-path="url(#clip0_2_1017)">
<path d="M110.335 17.6952C109.141 17.6952 108.25 17.3649 107.66 16.7042C107.087 16.0435 106.8 15.0289 106.8 13.6603V7.26586H105.01L105.056 5.16583H106.219C106.622 5.16583 106.924 5.1029 107.126 4.97706C107.327 4.83549 107.451 4.59166 107.498 4.24559L107.73 2.42871H109.242V5.16583H112.567V7.31305H109.242V13.5896C109.242 14.203 109.381 14.6435 109.66 14.9109C109.939 15.1783 110.35 15.3121 110.893 15.3121C111.187 15.3121 111.482 15.2806 111.776 15.2177C112.086 15.139 112.381 14.9974 112.66 14.7929V17.2705C112.195 17.4278 111.769 17.5379 111.381 17.6008C110.993 17.6638 110.645 17.6952 110.335 17.6952Z" fill="#191A20"/>
<path d="M97.3473 17.4358V11.0413V5.16596H99.5331L99.4168 9.41321H99.8121C99.9516 8.45365 100.169 7.63566 100.463 6.95924C100.758 6.28283 101.161 5.77159 101.672 5.42552C102.184 5.06371 102.82 4.88281 103.579 4.88281C103.734 4.88281 103.905 4.89068 104.091 4.90641C104.277 4.92214 104.486 4.96933 104.719 5.04798L104.602 7.73791C104.37 7.64352 104.129 7.5806 103.881 7.54914C103.633 7.50195 103.409 7.47835 103.207 7.47835C102.587 7.47835 102.06 7.65925 101.626 8.02106C101.192 8.36713 100.827 8.85478 100.533 9.484C100.254 10.0975 100.037 10.8133 99.8819 11.6312V17.4358H97.3473Z" fill="#191A20"/>
<path d="M89.7549 17.7427C88.5923 17.7427 87.5614 17.491 86.6622 16.9876C85.7631 16.4843 85.0578 15.7528 84.5462 14.7932C84.0501 13.8337 83.8021 12.6539 83.8021 11.2539C83.8021 9.82237 84.0656 8.63472 84.5927 7.69088C85.1198 6.74705 85.8251 6.03918 86.7087 5.56726C87.6079 5.09534 88.6155 4.85938 89.7317 4.85938C90.8788 4.85938 91.902 5.10321 92.8011 5.59085C93.7002 6.0785 94.4056 6.80211 94.9171 7.76167C95.4442 8.72123 95.7077 9.91676 95.7077 11.3482C95.7077 12.764 95.4442 13.9517 94.9171 14.9112C94.4056 15.8551 93.7002 16.5629 92.8011 17.0348C91.902 17.5068 90.8866 17.7427 89.7549 17.7427ZM89.8479 15.7135C90.5455 15.7135 91.1424 15.5483 91.6384 15.218C92.1345 14.8876 92.5143 14.4 92.7778 13.755C93.0414 13.1101 93.1731 12.3393 93.1731 11.4426C93.1731 10.5145 93.0336 9.72011 92.7546 9.05943C92.4755 8.38302 92.0725 7.86392 91.5454 7.50212C91.0338 7.14031 90.406 6.95941 89.6619 6.95941C88.9953 6.95941 88.4062 7.12458 87.8947 7.45493C87.3986 7.76954 87.0188 8.24932 86.7552 8.89427C86.4917 9.52349 86.3599 10.2943 86.3599 11.2067C86.3599 12.6382 86.67 13.7472 87.2901 14.5337C87.9102 15.3202 88.7628 15.7135 89.8479 15.7135Z" fill="#191A20"/>
<path d="M77.7589 17.4358V9.05931H75.6661V7.07726L78.7588 7.24243V6.8177C78.3247 6.67613 77.9604 6.47163 77.6659 6.20421C77.3868 5.92106 77.1698 5.59859 77.0148 5.23678C76.8753 4.85925 76.8055 4.45812 76.8055 4.0334C76.8055 3.37271 76.9605 2.79855 77.2706 2.3109C77.5806 1.80752 78.0147 1.42212 78.5728 1.1547C79.1463 0.871555 79.8129 0.72998 80.5725 0.72998C81.2081 0.72998 81.7817 0.816498 82.2933 0.989534C82.8048 1.14684 83.2234 1.3592 83.5489 1.62662L83.3164 3.9862C82.9909 3.71878 82.6111 3.49856 82.177 3.32552C81.7429 3.15248 81.3166 3.06597 80.8981 3.06597C80.402 3.06597 79.9912 3.22327 79.6657 3.53788C79.3556 3.83676 79.2006 4.30868 79.2006 4.95363C79.2006 5.3469 79.2626 5.67724 79.3866 5.94466C79.5106 6.21208 79.6734 6.4323 79.8749 6.60534C80.0765 6.76265 80.278 6.88849 80.4795 6.98287H83.3862V9.05931H80.2237V17.4358H77.7589Z" fill="#191A20"/>
<path d="M56.7808 17.436V9.74372V5.16613H58.9201L58.7806 8.98866H59.1992C59.4007 8.06054 59.672 7.29762 60.013 6.69986C60.3696 6.08637 60.7959 5.63017 61.292 5.3313C61.8035 5.01669 62.3926 4.85938 63.0592 4.85938C63.8033 4.85938 64.4157 5.04029 64.8962 5.40209C65.3923 5.76389 65.7643 6.25154 66.0124 6.86503C66.2759 7.47852 66.4154 8.17066 66.4309 8.94145H66.803C67.0045 8.04481 67.2836 7.29762 67.6401 6.69986C68.0122 6.08637 68.4695 5.63017 69.012 5.3313C69.5546 5.01669 70.1592 4.85938 70.8258 4.85938C71.4614 4.85938 72.0195 4.99309 72.5 5.26051C72.9806 5.5122 73.3836 5.88973 73.7092 6.39311C74.0347 6.89649 74.275 7.52571 74.43 8.28078C74.6006 9.02011 74.6858 9.87743 74.6858 10.8527V17.436H72.1512V11.1831C72.1512 10.2707 72.0737 9.51562 71.9187 8.91786C71.7637 8.3201 71.5234 7.87179 71.1978 7.57291C70.8723 7.27401 70.4615 7.12458 69.9654 7.12458C69.4073 7.12458 68.9113 7.32122 68.4772 7.71448C68.0587 8.09201 67.7176 8.61898 67.4541 9.29539C67.1905 9.97182 67.0278 10.7505 66.9658 11.6314V17.436H64.4777V11.3482C64.4777 10.4044 64.4002 9.62574 64.2451 9.01225C64.0901 8.38303 63.8498 7.91111 63.5243 7.5965C63.1987 7.28189 62.7879 7.12458 62.2919 7.12458C61.7028 7.12458 61.1912 7.32908 60.7572 7.73808C60.3386 8.13134 60.0053 8.67404 59.7573 9.36619C59.5092 10.0583 59.3542 10.837 59.2922 11.7022V17.436H56.7808Z" fill="#191A20"/>
<path d="M49.1885 17.7427C48.0258 17.7427 46.995 17.491 46.0958 16.9876C45.1967 16.4843 44.4914 15.7528 43.9798 14.7932C43.4837 13.8337 43.2357 12.6539 43.2357 11.2539C43.2357 9.82237 43.4992 8.63472 44.0263 7.69088C44.5534 6.74705 45.2587 6.03918 46.1423 5.56726C47.0415 5.09534 48.0491 4.85938 49.1653 4.85938C50.3124 4.85938 51.3356 5.10321 52.2347 5.59085C53.1338 6.0785 53.8392 6.80211 54.3507 7.76167C54.8778 8.72123 55.1413 9.91676 55.1413 11.3482C55.1413 12.764 54.8778 13.9517 54.3507 14.9112C53.8392 15.8551 53.1338 16.5629 52.2347 17.0348C51.3356 17.5068 50.3202 17.7427 49.1885 17.7427ZM49.2815 15.7135C49.9791 15.7135 50.5759 15.5483 51.072 15.218C51.5681 14.8876 51.9479 14.4 52.2114 13.755C52.475 13.1101 52.6067 12.3393 52.6067 11.4426C52.6067 10.5145 52.4672 9.72011 52.1882 9.05943C51.9091 8.38302 51.5061 7.86392 50.979 7.50212C50.4674 7.14031 49.8396 6.95941 49.0955 6.95941C48.4289 6.95941 47.8398 7.12458 47.3283 7.45493C46.8322 7.76954 46.4524 8.24932 46.1888 8.89427C45.9253 9.52349 45.7935 10.2943 45.7935 11.2067C45.7935 12.6382 46.1036 13.7472 46.7237 14.5337C47.3438 15.3202 48.1964 15.7135 49.2815 15.7135Z" fill="#191A20"/>
<path d="M30.9256 17.4359V9.90877V0.800781H33.4835V4.6233C33.4835 4.95365 33.4757 5.29972 33.4602 5.66152C33.4447 6.00759 33.4137 6.36153 33.3672 6.72333C33.3207 7.08514 33.2742 7.44694 33.2277 7.80874C33.1812 8.17054 33.1269 8.54021 33.0649 8.91775H33.4835C33.716 8.03684 34.0028 7.2975 34.3438 6.69974C34.7004 6.08625 35.1422 5.63006 35.6693 5.33118C36.2119 5.01657 36.8629 4.85926 37.6226 4.85926C39.0177 4.85926 40.0564 5.35478 40.7385 6.3458C41.4206 7.3211 41.7616 8.7919 41.7616 10.7582V17.4359H39.2038V11.0886C39.2038 9.70427 38.9945 8.68965 38.5759 8.0447C38.1729 7.39975 37.5605 7.07727 36.7389 7.07727C36.0568 7.07727 35.4833 7.28177 35.0182 7.69076C34.5686 8.09976 34.2121 8.65033 33.9485 9.34247C33.685 10.0346 33.5145 10.8212 33.437 11.7021V17.4359H30.9256Z" fill="#191A20"/>
</g>
<defs>
<clipPath id="clip0_2_1017">
<rect width="112" height="18" fill="white" transform="translate(0.659973 0.72998)"/>
</clipPath>
</defs>
</svg>
