<svg width="17" height="19" viewBox="0 0 17 19" fill="none" xmlns="http://www.w3.org/2000/svg">
<path d="M8.63001 8.36707C7.78001 8.36707 6.93001 8.21707 6.12201 7.92507C5.79701 7.80907 5.63001 7.45007 5.74701 7.12507C5.87201 6.80007 6.23001 6.63407 6.55501 6.75007C7.89701 7.23407 9.37201 7.23407 10.713 6.75007C11.038 6.63407 11.397 6.80007 11.513 7.12507C11.63 7.45007 11.463 7.80907 11.138 7.92507C10.33 8.21707 9.48001 8.36707 8.63001 8.36707Z" fill="#191A20"/>
<path d="M14.522 18.759C14.097 18.759 13.63 18.634 13.18 18.375L9.114 16.117C8.872 15.984 8.397 15.984 8.155 16.117L4.089 18.375C3.264 18.834 2.422 18.884 1.78 18.5C1.139 18.125 0.772003 17.367 0.772003 16.425V4.68404C0.772003 2.56704 2.497 0.842041 4.614 0.842041H12.655C14.772 0.842041 16.497 2.56704 16.497 4.68404V16.425C16.497 17.367 16.13 18.125 15.489 18.5C15.197 18.675 14.864 18.759 14.522 18.759ZM8.63 14.767C9.022 14.767 9.405 14.85 9.714 15.025L13.78 17.284C14.205 17.525 14.597 17.575 14.847 17.425C15.097 17.275 15.239 16.917 15.239 16.425V4.68404C15.239 3.25904 14.072 2.09204 12.647 2.09204H4.614C3.189 2.09204 2.022 3.25904 2.022 4.68404V16.425C2.022 16.917 2.164 17.284 2.414 17.425C2.664 17.567 3.047 17.525 3.48 17.284L7.547 15.025C7.855 14.85 8.239 14.767 8.63 14.767Z" fill="#191A20"/>
<path d="M14.522 18.759C14.097 18.759 13.63 18.634 13.18 18.375L9.114 16.117C8.872 15.984 8.397 15.984 8.155 16.117L4.089 18.375C3.264 18.834 2.422 18.884 1.78 18.5C1.139 18.125 0.772003 17.367 0.772003 16.425V4.68404C0.772003 2.56704 2.497 0.842041 4.614 0.842041H12.655C14.772 0.842041 16.497 2.56704 16.497 4.68404V16.425C16.497 17.367 16.13 18.125 15.489 18.5C15.197 18.675 14.864 18.759 14.522 18.759ZM8.63 14.767C9.022 14.767 9.405 14.85 9.714 15.025L13.78 17.284C14.205 17.525 14.597 17.575 14.847 17.425C15.097 17.275 15.239 16.917 15.239 16.425V4.68404C15.239 3.25904 14.072 2.09204 12.647 2.09204H4.614C3.189 2.09204 2.022 3.25904 2.022 4.68404V16.425C2.022 16.917 2.164 17.284 2.414 17.425C2.664 17.567 3.047 17.525 3.48 17.284L7.547 15.025C7.855 14.85 8.239 14.767 8.63 14.767Z" fill="#191A20"/>
</svg>
