<svg width="16" height="17" viewBox="0 0 16 17" fill="none" xmlns="http://www.w3.org/2000/svg">
<g opacity="0.8">
<path d="M8.0003 10.178C6.58029 10.178 5.42029 9.07954 5.42029 7.72082C5.42029 6.36208 6.58029 5.27002 8.0003 5.27002C9.4203 5.27002 10.5803 6.36843 10.5803 7.72716C10.5803 9.08587 9.4203 10.178 8.0003 10.178ZM8.0003 6.2224C7.13362 6.2224 6.42029 6.89541 6.42029 7.72716C6.42029 8.55893 7.12695 9.23192 8.0003 9.23192C8.87366 9.23192 9.5803 8.55893 9.5803 7.72716C9.5803 6.89541 8.86694 6.2224 8.0003 6.2224Z" fill="#191A20"/>
<path d="M8.00031 15.6317C7.01364 15.6317 6.0203 15.2762 5.24697 14.5714C3.2803 12.7682 1.10697 9.89206 1.92697 6.46985C2.66697 3.36509 5.51364 1.97461 8.00031 1.97461C8.00031 1.97461 8.00031 1.97461 8.00695 1.97461C10.4937 1.97461 13.3403 3.36509 14.0803 6.47619C14.8937 9.89838 12.7203 12.7682 10.7537 14.5714C9.98031 15.2762 8.98695 15.6317 8.00031 15.6317ZM8.00031 2.92699C6.0603 2.92699 3.56697 3.91111 2.90697 6.67937C2.18697 9.66981 4.1603 12.2476 5.94697 13.8793C7.1003 14.9397 8.90695 14.9397 10.0603 13.8793C11.8403 12.2476 13.8137 9.66981 13.107 6.67937C12.4403 3.91111 9.94031 2.92699 8.00031 2.92699Z" fill="#191A20"/>
</g>
</svg>
