<svg width="17" height="17" viewBox="0 0 17 17" fill="none" xmlns="http://www.w3.org/2000/svg">
<g clip-path="url(#clip0_2_455)">
<path d="M12.7767 12.6335H3.44333C1.83 12.6335 0.943329 11.7468 0.943329 10.1335V7.4668C0.943329 5.85346 1.83 4.9668 3.44333 4.9668H12.7767C14.39 4.9668 15.2767 5.85346 15.2767 7.4668V10.1335C15.2767 11.7468 14.39 12.6335 12.7767 12.6335ZM3.44333 5.9668C2.39 5.9668 1.94333 6.41346 1.94333 7.4668V10.1335C1.94333 11.1868 2.39 11.6335 3.44333 11.6335H12.7767C13.83 11.6335 14.2767 11.1868 14.2767 10.1335V7.4668C14.2767 6.41346 13.83 5.9668 12.7767 5.9668H3.44333Z" fill="#191A20"/>
<path d="M12.11 9.30013C11.8367 9.30013 11.61 9.07346 11.61 8.80013V5.4668C11.61 5.19346 11.8367 4.9668 12.11 4.9668C12.3833 4.9668 12.61 5.19346 12.61 5.4668V8.80013C12.61 9.07346 12.3833 9.30013 12.11 9.30013Z" fill="#191A20"/>
<path d="M4.10999 8.63346C3.83665 8.63346 3.60999 8.4068 3.60999 8.13346V5.4668C3.60999 5.19346 3.83665 4.9668 4.10999 4.9668C4.38332 4.9668 4.60999 5.19346 4.60999 5.4668V8.13346C4.60999 8.4068 4.38332 8.63346 4.10999 8.63346Z" fill="#191A20"/>
<path d="M6.77664 9.30013C6.49664 9.30013 6.27664 9.07346 6.27664 8.79346L6.30998 5.46013C6.30998 5.1868 6.53664 4.9668 6.80998 4.9668C6.80998 4.9668 6.80998 4.9668 6.81664 4.9668C7.08998 4.9668 7.31664 5.19346 7.30998 5.47346L7.27664 8.8068C7.27664 9.08013 7.04998 9.30013 6.77664 9.30013Z" fill="#191A20"/>
<path d="M9.44333 7.9668C9.17 7.9668 8.94333 7.74013 8.94333 7.4668V5.4668C8.94333 5.19346 9.17 4.9668 9.44333 4.9668C9.71666 4.9668 9.94333 5.19346 9.94333 5.4668V7.4668C9.94333 7.74013 9.71666 7.9668 9.44333 7.9668Z" fill="#191A20"/>
</g>
<defs>
<clipPath id="clip0_2_455">
<rect width="16" height="16" fill="white" transform="translate(0.109985 0.800049)"/>
</clipPath>
</defs>
</svg>
