<svg width="20" height="22" viewBox="0 0 20 22" fill="none" xmlns="http://www.w3.org/2000/svg">
<g opacity="0.8">
<path d="M10.0004 12.9183C8.22539 12.9183 6.77539 11.4766 6.77539 9.69323C6.77539 7.90989 8.22539 6.47656 10.0004 6.47656C11.7754 6.47656 13.2254 7.91823 13.2254 9.70156C13.2254 11.4849 11.7754 12.9183 10.0004 12.9183ZM10.0004 7.72656C8.91706 7.72656 8.02539 8.60989 8.02539 9.70156C8.02539 10.7933 8.90872 11.6766 10.0004 11.6766C11.0921 11.6766 11.9754 10.7933 11.9754 9.70156C11.9754 8.60989 11.0837 7.72656 10.0004 7.72656Z" fill="#F5F5F5"/>
<path d="M10.0004 20.0763C8.76706 20.0763 7.52539 19.6097 6.55872 18.6847C4.10039 16.318 1.38372 12.543 2.40872 8.05137C3.33372 3.97637 6.89206 2.15137 10.0004 2.15137C10.0004 2.15137 10.0004 2.15137 10.0087 2.15137C13.1171 2.15137 16.6754 3.97637 17.6004 8.0597C18.6171 12.5513 15.9004 16.318 13.4421 18.6847C12.4754 19.6097 11.2337 20.0763 10.0004 20.0763ZM10.0004 3.40137C7.57539 3.40137 4.45872 4.69303 3.63372 8.32637C2.73372 12.2513 5.20039 15.6347 7.43372 17.7763C8.87539 19.168 11.1337 19.168 12.5754 17.7763C14.8004 15.6347 17.2671 12.2513 16.3837 8.32637C15.5504 4.69303 12.4254 3.40137 10.0004 3.40137Z" fill="#F5F5F5"/>
</g>
</svg>
